<?xml version="1.0" encoding="utf-8"?>
<!-- Generator: Adobe Illustrator 22.1.0, SVG Export Plug-In . SVG Version: 6.00 Build 0)  -->
<svg version="1.2" baseProfile="tiny" id="Layer_1" xmlns="http://www.w3.org/2000/svg" xmlns:xlink="http://www.w3.org/1999/xlink"
	 x="0px" y="0px" viewBox="0 0 16 16" xml:space="preserve">
<rect id="z_bg" width="16" height="16"/>
<g>
	<g>
		<path fill="#FFFFFF" d="M7.7,12.6c-0.5,0-0.9,0-1.3-0.1s-0.8-0.2-1.1-0.3l0.2-1.2c0.4,0.2,0.8,0.3,1.2,0.4s0.8,0.1,1.2,0.1
			c0.5,0,1-0.1,1.2-0.3s0.4-0.5,0.4-0.9c0-0.3-0.1-0.5-0.2-0.7S8.9,9.4,8.7,9.3L7.2,8.6C6.7,8.3,6.2,8,5.9,7.7S5.5,6.9,5.5,6.3
			c0-0.7,0.2-1.3,0.7-1.7S7.2,4,8,4C8.5,4,9,4.1,9.5,4.3s0.8,0.4,1.2,0.8L9.9,5.9c-0.3-0.3-0.7-0.5-1-0.6S8.3,5.1,8,5.1
			C7.6,5.1,7.3,5.2,7,5.4S6.7,5.9,6.7,6.3c0,0.3,0.1,0.5,0.2,0.7s0.4,0.3,0.6,0.5l1.2,0.6c0.6,0.3,1.1,0.6,1.4,1s0.5,0.8,0.5,1.4
			c0,0.8-0.2,1.3-0.7,1.7S8.7,12.6,7.7,12.6z"/>
	</g>
</g>
</svg>
