<?xml version="1.0" encoding="utf-8"?>
<!-- Generator: Adobe Illustrator 22.1.0, SVG Export Plug-In . SVG Version: 6.00 Build 0)  -->
<svg version="1.2" baseProfile="tiny" id="ziox" xmlns="http://www.w3.org/2000/svg" xmlns:xlink="http://www.w3.org/1999/xlink"
	 x="0px" y="0px" viewBox="0 0 298.4 103.1" xml:space="preserve">
<g>
	<g>
		<path d="M46.6,75.8c-3.3,0-6.1-0.1-8.5-0.3c-2.4-0.2-4.5-0.5-6.5-1l1-7.9c2.9,0.4,5.5,0.8,7.7,1c2.2,0.2,4.3,0.3,6.3,0.3
			c4.4,0,7.7-0.4,9.7-1.3c2-0.9,3-2.3,3-4.2c0-1.3-0.4-2.3-1.1-3c-0.7-0.6-1.8-1.2-3.2-1.5l-10.1-2.6c-4.3-1.1-7.5-2.5-9.5-4.1
			c-2-1.6-3-4.1-3-7.4c0-4.8,1.8-8.3,5.5-10.4c3.7-2.2,9.6-3.2,17.8-3.2c2.1,0,4.1,0.1,5.9,0.2c1.8,0.1,3.7,0.3,5.6,0.6l-0.9,7.6
			c-2.2-0.2-4.2-0.4-5.9-0.5c-1.7-0.1-3.4-0.1-5-0.1c-4.9,0-8.5,0.4-10.7,1.3c-2.2,0.8-3.3,2.2-3.3,4.1c0,1.3,0.5,2.2,1.4,2.8
			c0.9,0.6,2.3,1.1,4.2,1.6l8.1,2c4.6,1.1,8,2.6,10.1,4.4c2.1,1.8,3.2,4.5,3.2,8.1c0,4.7-1.7,8.1-5.2,10.3
			C59.7,74.7,54.2,75.8,46.6,75.8z"/>
		<path d="M95.7,75.8c-4.6,0-8.2-1.4-10.7-4.1s-3.8-6.6-3.8-11.6V31.1H90v28.9c0,2.5,0.7,4.4,2.2,5.8c1.4,1.4,3.4,2,6,2
			c3.2,0,5.6-1,7.2-3c1.6-2,2.4-5.4,2.4-10.2l2.2,11.8h-2.9c-0.7,3-2,5.3-4.1,6.9C101.1,75,98.7,75.8,95.7,75.8z M107.9,62.6V31.1
			h8.8v28.9L107.9,62.6z M108.6,75.4l-0.7-10.5v-7.7h8.8V67l6,0.9v7L108.6,75.4z"/>
		<path d="M131.3,75V31.1h7.9l0.8,9.3V75H131.3z M158.3,75V46.4c0-2.6-0.7-4.7-2.1-6.1c-1.4-1.4-3.3-2.2-5.8-2.2
			c-6.9,0-10.3,4.1-10.3,12.2l-2.6-11.2h3.4c0.2-2.9,1.3-5.1,3.2-6.6s4.7-2.2,8.4-2.2c4.6,0,8.2,1.4,10.8,4.2
			c2.5,2.8,3.8,6.8,3.8,11.9V75H158.3z"/>
		<path d="M176.8,48.3v-7.2h40.5v7.2H176.8z M190.6,75V34.9c0-15.2,6.9-22.7,20.8-22.7c3.1,0,6.2,0.3,9.1,0.8l-0.9,7.6
			c-1.7-0.2-3.3-0.4-4.6-0.5c-1.3-0.1-2.6-0.1-3.8-0.1c-7.8,0-11.7,4.8-11.7,14.5V75H190.6z"/>
		<path d="M243.4,75l-17.5-43.8h9.1l14.3,37.2h1.3V75H243.4z M226.7,94.8l-0.4-7.9l6.9-0.8c2.9-0.4,5.4-1.1,7.4-2.4s3.8-3,5.3-5.4
			s2.7-5.5,3.8-9.4l10.9-37.9h9.1l-12.7,39.9c-1.7,5.2-3.5,9.5-5.6,12.7s-4.5,5.6-7.3,7.2c-2.8,1.6-6.2,2.6-10.1,3.1L226.7,94.8z"/>
	</g>
</g>
</svg>
